<svg id="SvgjsSvg1006" width="488" height="822" xmlns="http://www.w3.org/2000/svg" version="1.1" xmlns:xlink="http://www.w3.org/1999/xlink" xmlns:svgjs="http://svgjs.com/svgjs"><defs id="SvgjsDefs1007"><marker id="SvgjsMarker1068" markerWidth="16" markerHeight="12" refX="16" refY="6" viewBox="0 0 16 12" orient="auto" markerUnits="userSpaceOnUse"><path id="SvgjsPath1069" d="M0,2 L14,6 L0,11 L0,2" fill="#323232" stroke="#323232" stroke-width="2"></path></marker><marker id="SvgjsMarker1072" markerWidth="16" markerHeight="12" refX="16" refY="6" viewBox="0 0 16 12" orient="auto" markerUnits="userSpaceOnUse"><path id="SvgjsPath1073" d="M0,2 L14,6 L0,11 L0,2" fill="#323232" stroke="#323232" stroke-width="2"></path></marker><marker id="SvgjsMarker1080" markerWidth="16" markerHeight="12" refX="16" refY="6" viewBox="0 0 16 12" orient="auto" markerUnits="userSpaceOnUse"><path id="SvgjsPath1081" d="M0,2 L14,6 L0,11 L0,2" fill="#323232" stroke="#323232" stroke-width="2"></path></marker><marker id="SvgjsMarker1088" markerWidth="16" markerHeight="12" refX="16" refY="6" viewBox="0 0 16 12" orient="auto" markerUnits="userSpaceOnUse"><path id="SvgjsPath1089" d="M0,2 L14,6 L0,11 L0,2" fill="#323232" stroke="#323232" stroke-width="2"></path></marker><marker id="SvgjsMarker1096" markerWidth="16" markerHeight="12" refX="16" refY="6" viewBox="0 0 16 12" orient="auto" markerUnits="userSpaceOnUse"><path id="SvgjsPath1097" d="M0,2 L14,6 L0,11 L0,2" fill="#323232" stroke="#323232" stroke-width="2"></path></marker><marker id="SvgjsMarker1104" markerWidth="16" markerHeight="12" refX="16" refY="6" viewBox="0 0 16 12" orient="auto" markerUnits="userSpaceOnUse"><path id="SvgjsPath1105" d="M0,2 L14,6 L0,11 L0,2" fill="#323232" stroke="#323232" stroke-width="2"></path></marker></defs><g id="SvgjsG1008" transform="translate(47,25)"><path id="SvgjsPath1009" d="M 0 4Q 0 0 4 0L 96 0Q 100 0 100 4L 100 66Q 100 70 96 70L 4 70Q 0 70 0 66Z" stroke="rgba(50,50,50,1)" stroke-width="2" fill-opacity="1" fill="#ffffff"></path><g id="SvgjsG1010"><text id="SvgjsText1011" font-family="微软雅黑" text-anchor="middle" font-size="13px" width="34" fill="#323232" font-weight="400" align="middle" anchor="middle" family="微软雅黑" size="13px" weight="400" font-style="" opacity="1" y="25.05" transform="rotate(0)"><tspan id="SvgjsTspan1012" dy="16" x="50"><tspan id="SvgjsTspan1013" style="text-decoration:;">patch</tspan></tspan></text></g></g><g id="SvgjsG1014" transform="translate(25,164)"><path id="SvgjsPath1015" d="M 0 61L 72 0L 144 61L 72 122Z" stroke="rgba(50,50,50,1)" stroke-width="2" fill-opacity="1" fill="#ffffff"></path><g id="SvgjsG1016"><text id="SvgjsText1017" font-family="微软雅黑" text-anchor="middle" font-size="13px" width="56" fill="#323232" font-weight="400" align="middle" anchor="middle" family="微软雅黑" size="13px" weight="400" font-style="" opacity="1" y="43.66" transform="rotate(0)"><tspan id="SvgjsTspan1018" dy="16" x="72"><tspan id="SvgjsTspan1019" style="text-decoration:;">oldVnode</tspan></tspan><tspan id="SvgjsTspan1020" dy="16" x="72"><tspan id="SvgjsTspan1021" style="text-decoration:;">是否存在</tspan></tspan></text></g></g><g id="SvgjsG1022" transform="translate(332,187.5)"><path id="SvgjsPath1023" d="M 0 4Q 0 0 4 0L 127 0Q 131 0 131 4L 131 71Q 131 75 127 75L 4 75Q 0 75 0 71Z" stroke="rgba(50,50,50,1)" stroke-width="2" fill-opacity="1" fill="#ffffff"></path><g id="SvgjsG1024"><text id="SvgjsText1025" font-family="微软雅黑" text-anchor="middle" font-size="13px" width="110" fill="#323232" font-weight="400" align="middle" anchor="middle" family="微软雅黑" size="13px" weight="400" font-style="" opacity="1" y="19.55" transform="rotate(0)"><tspan id="SvgjsTspan1026" dy="16" x="65.5"><tspan id="SvgjsTspan1027" style="text-decoration:;">使用 vnode 创建节</tspan></tspan><tspan id="SvgjsTspan1028" dy="16" x="65.5"><tspan id="SvgjsTspan1029" style="text-decoration:;">点并插入视图</tspan></tspan></text></g></g><g id="SvgjsG1030" transform="translate(25,367)"><path id="SvgjsPath1031" d="M 0 68L 72 0L 144 68L 72 136Z" stroke="rgba(50,50,50,1)" stroke-width="2" fill-opacity="1" fill="#ffffff"></path><g id="SvgjsG1032"><text id="SvgjsText1033" font-family="微软雅黑" text-anchor="middle" font-size="13px" width="114" fill="#323232" font-weight="400" align="middle" anchor="middle" family="微软雅黑" size="13px" weight="400" font-style="" opacity="1" y="50.73" transform="rotate(0)"><tspan id="SvgjsTspan1034" dy="16" x="72"><tspan id="SvgjsTspan1035" style="text-decoration:;">oldVnode 和 vnode </tspan></tspan><tspan id="SvgjsTspan1036" dy="16" x="72"><tspan id="SvgjsTspan1037" style="text-decoration:;">是否是同一个节点</tspan></tspan></text></g></g><g id="SvgjsG1038" transform="translate(332,394.5)"><path id="SvgjsPath1039" d="M 0 0L 131 0L 131 81L 0 81Z" stroke="rgba(50,50,50,1)" stroke-width="2" fill-opacity="1" fill="#ffffff"></path><g id="SvgjsG1040"><text id="SvgjsText1041" font-family="微软雅黑" text-anchor="middle" font-size="13px" width="104" fill="#323232" font-weight="400" align="middle" anchor="middle" family="微软雅黑" size="13px" weight="400" font-style="" opacity="1" y="14.55" transform="rotate(0)"><tspan id="SvgjsTspan1042" dy="16" x="65.5"><tspan id="SvgjsTspan1043" style="text-decoration:;">使用 patchVnode </tspan></tspan><tspan id="SvgjsTspan1044" dy="16" x="65.5"><tspan id="SvgjsTspan1045" style="text-decoration:;">进行更详细的对比</tspan></tspan><tspan id="SvgjsTspan1046" dy="16" x="65.5"><tspan id="SvgjsTspan1047" style="text-decoration:;">与更新操作</tspan></tspan></text></g></g><g id="SvgjsG1048" transform="translate(31,589)"><path id="SvgjsPath1049" d="M 0 0L 132 0L 132 70L 0 70Z" stroke="rgba(50,50,50,1)" stroke-width="2" fill-opacity="1" fill="#ffffff"></path><g id="SvgjsG1050"><text id="SvgjsText1051" font-family="微软雅黑" text-anchor="middle" font-size="13px" width="110" fill="#323232" font-weight="400" align="middle" anchor="middle" family="微软雅黑" size="13px" weight="400" font-style="" opacity="1" y="9.05" transform="rotate(0)"><tspan id="SvgjsTspan1052" dy="16" x="66"><tspan id="SvgjsTspan1053" style="text-decoration:;">使用 vnode 创建真</tspan></tspan><tspan id="SvgjsTspan1054" dy="16" x="66"><tspan id="SvgjsTspan1055" style="text-decoration:;">实节点并插入到视</tspan></tspan><tspan id="SvgjsTspan1056" dy="16" x="66"><tspan id="SvgjsTspan1057" style="text-decoration:;">图中旧节点的旁边</tspan></tspan></text></g></g><g id="SvgjsG1058" transform="translate(34.5,728)"><path id="SvgjsPath1059" d="M 0 4Q 0 0 4 0L 121 0Q 125 0 125 4L 125 65Q 125 69 121 69L 4 69Q 0 69 0 65Z" stroke="rgba(50,50,50,1)" stroke-width="2" fill-opacity="1" fill="#ffffff"></path><g id="SvgjsG1060"><text id="SvgjsText1061" font-family="微软雅黑" text-anchor="middle" font-size="13px" width="104" fill="#323232" font-weight="400" align="middle" anchor="middle" family="微软雅黑" size="13px" weight="400" font-style="" opacity="1" y="16.55" transform="rotate(0)"><tspan id="SvgjsTspan1062" dy="16" x="62.5"><tspan id="SvgjsTspan1063" style="text-decoration:;">将视图中的旧节点</tspan></tspan><tspan id="SvgjsTspan1064" dy="16" x="62.5"><tspan id="SvgjsTspan1065" style="text-decoration:;">删除</tspan></tspan></text></g></g><g id="SvgjsG1066"><path id="SvgjsPath1067" d="M97 95L97 129.5L97 129.5L97 164" stroke="#323232" stroke-width="2" fill="none" marker-end="url(#SvgjsMarker1068)"></path></g><g id="SvgjsG1070"><path id="SvgjsPath1071" d="M169 225L250.5 225L250.5 225L332 225" stroke="#323232" stroke-width="2" fill="none" marker-end="url(#SvgjsMarker1072)"></path><rect id="SvgjsRect1074" width="39" height="16" x="231" y="217" fill="#ffffff"></rect><text id="SvgjsText1075" font-family="微软雅黑" text-anchor="middle" font-size="13px" width="39" fill="#323232" font-weight="400" align="top" anchor="middle" family="微软雅黑" size="13px" weight="400" font-style="" opacity="1" y="215.05" transform="rotate(0)"><tspan id="SvgjsTspan1076" dy="16" x="250.5"><tspan id="SvgjsTspan1077" style="text-decoration:;">不存在</tspan></tspan></text></g><g id="SvgjsG1078"><path id="SvgjsPath1079" d="M97 286L97 326.5L97 326.5L97 367" stroke="#323232" stroke-width="2" fill="none" marker-end="url(#SvgjsMarker1080)"></path><rect id="SvgjsRect1082" width="26" height="16" x="84" y="318.5" fill="#ffffff"></rect><text id="SvgjsText1083" font-family="微软雅黑" text-anchor="middle" font-size="13px" width="26" fill="#323232" font-weight="400" align="top" anchor="middle" family="微软雅黑" size="13px" weight="400" font-style="" opacity="1" y="316.55" transform="rotate(0)"><tspan id="SvgjsTspan1084" dy="16" x="97"><tspan id="SvgjsTspan1085" style="text-decoration:;">存在</tspan></tspan></text></g><g id="SvgjsG1086"><path id="SvgjsPath1087" d="M169 435L250.5 435L250.5 435L332 435" stroke="#323232" stroke-width="2" fill="none" marker-end="url(#SvgjsMarker1088)"></path><rect id="SvgjsRect1090" width="13" height="16" x="244" y="427" fill="#ffffff"></rect><text id="SvgjsText1091" font-family="微软雅黑" text-anchor="middle" font-size="13px" width="13" fill="#323232" font-weight="400" align="top" anchor="middle" family="微软雅黑" size="13px" weight="400" font-style="" opacity="1" y="425.05" transform="rotate(0)"><tspan id="SvgjsTspan1092" dy="16" x="250.5"><tspan id="SvgjsTspan1093" style="text-decoration:;">是</tspan></tspan></text></g><g id="SvgjsG1094"><path id="SvgjsPath1095" d="M97 503L97 546L97 546L97 589" stroke="#323232" stroke-width="2" fill="none" marker-end="url(#SvgjsMarker1096)"></path><rect id="SvgjsRect1098" width="26" height="16" x="84" y="538" fill="#ffffff"></rect><text id="SvgjsText1099" font-family="微软雅黑" text-anchor="middle" font-size="13px" width="26" fill="#323232" font-weight="400" align="top" anchor="middle" family="微软雅黑" size="13px" weight="400" font-style="" opacity="1" y="536.05" transform="rotate(0)"><tspan id="SvgjsTspan1100" dy="16" x="97"><tspan id="SvgjsTspan1101" style="text-decoration:;">不是</tspan></tspan></text></g><g id="SvgjsG1102"><path id="SvgjsPath1103" d="M97 659L97 693.5L97 693.5L97 728" stroke="#323232" stroke-width="2" fill="none" marker-end="url(#SvgjsMarker1104)"></path></g></svg>