<svg id="SvgjsSvg1006" width="531.09375" height="697" xmlns="http://www.w3.org/2000/svg" version="1.1" xmlns:xlink="http://www.w3.org/1999/xlink" xmlns:svgjs="http://svgjs.com/svgjs"><defs id="SvgjsDefs1007"><marker id="SvgjsMarker1040" markerWidth="16" markerHeight="12" refX="16" refY="6" viewBox="0 0 16 12" orient="auto" markerUnits="userSpaceOnUse"><path id="SvgjsPath1041" d="M0,2 L14,6 L0,11 L0,2" fill="#323232" stroke="#323232" stroke-width="2"></path></marker><marker id="SvgjsMarker1044" markerWidth="16" markerHeight="12" refX="16" refY="6" viewBox="0 0 16 12" orient="auto" markerUnits="userSpaceOnUse"><path id="SvgjsPath1045" d="M0,2 L14,6 L0,11 L0,2" fill="#323232" stroke="#323232" stroke-width="2"></path></marker><marker id="SvgjsMarker1052" markerWidth="16" markerHeight="12" refX="16" refY="6" viewBox="0 0 16 12" orient="auto" markerUnits="userSpaceOnUse"><path id="SvgjsPath1053" d="M0,2 L14,6 L0,11 L0,2" fill="#323232" stroke="#323232" stroke-width="2"></path></marker><marker id="SvgjsMarker1072" markerWidth="16" markerHeight="12" refX="16" refY="6" viewBox="0 0 16 12" orient="auto" markerUnits="userSpaceOnUse"><path id="SvgjsPath1073" d="M0,2 L14,6 L0,11 L0,2" fill="#323232" stroke="#323232" stroke-width="2"></path></marker><marker id="SvgjsMarker1080" markerWidth="16" markerHeight="12" refX="16" refY="6" viewBox="0 0 16 12" orient="auto" markerUnits="userSpaceOnUse"><path id="SvgjsPath1081" d="M0,2 L14,6 L0,11 L0,2" fill="#323232" stroke="#323232" stroke-width="2"></path></marker><marker id="SvgjsMarker1088" markerWidth="16" markerHeight="12" refX="16" refY="6" viewBox="0 0 16 12" orient="auto" markerUnits="userSpaceOnUse"><path id="SvgjsPath1089" d="M0,2 L14,6 L0,11 L0,2" fill="#323232" stroke="#323232" stroke-width="2"></path></marker><marker id="SvgjsMarker1092" markerWidth="16" markerHeight="12" refX="16" refY="6" viewBox="0 0 16 12" orient="auto" markerUnits="userSpaceOnUse"><path id="SvgjsPath1093" d="M0,2 L14,6 L0,11 L0,2" fill="#323232" stroke="#323232" stroke-width="2"></path></marker><marker id="SvgjsMarker1096" markerWidth="16" markerHeight="12" refX="16" refY="6" viewBox="0 0 16 12" orient="auto" markerUnits="userSpaceOnUse"><path id="SvgjsPath1097" d="M0,2 L14,6 L0,11 L0,2" fill="#323232" stroke="#323232" stroke-width="2"></path></marker></defs><g id="SvgjsG1008" transform="translate(29.5,25)"><path id="SvgjsPath1009" d="M 20 0L 133 0C 159.66666666666666 0 159.66666666666666 60 133 60L 20 60C -6.666666666666667 60 -6.666666666666667 0 20 0Z" stroke="rgba(50,50,50,1)" stroke-width="2" fill-opacity="1" fill="#ffffff"></path><g id="SvgjsG1010"><text id="SvgjsText1011" font-family="微软雅黑" text-anchor="middle" font-size="13px" width="52" fill="#323232" font-weight="400" align="middle" anchor="middle" family="微软雅黑" size="13px" weight="400" font-style="" opacity="1" y="20.05" transform="rotate(0)"><tspan id="SvgjsTspan1012" dy="16" x="76.5"><tspan id="SvgjsTspan1013" style="text-decoration:;">创建节点</tspan></tspan></text></g></g><g id="SvgjsG1014" transform="translate(25,154)"><path id="SvgjsPath1015" d="M 0 42.5L 81 0L 162 42.5L 81 85L 0 42.5Z" stroke="rgba(50,50,50,1)" stroke-width="2" fill-opacity="1" fill="#ffffff"></path><g id="SvgjsG1016"><text id="SvgjsText1017" font-family="微软雅黑" text-anchor="middle" font-size="13px" width="118" fill="#323232" font-weight="400" align="middle" anchor="middle" family="微软雅黑" size="13px" weight="400" font-style="" opacity="1" y="32.55" transform="rotate(0)"><tspan id="SvgjsTspan1018" dy="16" x="81"><tspan id="SvgjsTspan1019" style="text-decoration:;">vnode 是元素节点？</tspan></tspan></text></g></g><g id="SvgjsG1020" transform="translate(25,311)"><path id="SvgjsPath1021" d="M 0 42.5L 81 0L 162 42.5L 81 85L 0 42.5Z" stroke="rgba(50,50,50,1)" stroke-width="2" fill-opacity="1" fill="#ffffff"></path><g id="SvgjsG1022"><text id="SvgjsText1023" font-family="微软雅黑" text-anchor="middle" font-size="13px" width="118" fill="#323232" font-weight="400" align="middle" anchor="middle" family="微软雅黑" size="13px" weight="400" font-style="" opacity="1" y="32.55" transform="rotate(0)"><tspan id="SvgjsTspan1024" dy="16" x="81"><tspan id="SvgjsTspan1025" style="text-decoration:;">vnode 是注释节点？</tspan></tspan></text></g></g><g id="SvgjsG1026" transform="translate(31.5,471)"><path id="SvgjsPath1027" d="M 0 0L 149 0L 149 69L 0 69Z" stroke="rgba(50,50,50,1)" stroke-width="2" fill-opacity="1" fill="#ffffff"></path><g id="SvgjsG1028"><text id="SvgjsText1029" font-family="微软雅黑" text-anchor="middle" font-size="13px" width="78" fill="#323232" font-weight="400" align="middle" anchor="middle" family="微软雅黑" size="13px" weight="400" font-style="" opacity="1" y="24.55" transform="rotate(0)"><tspan id="SvgjsTspan1030" dy="16" x="74.5"><tspan id="SvgjsTspan1031" style="text-decoration:;">创建文本节点</tspan></tspan></text></g></g><g id="SvgjsG1032" transform="translate(29.5,612)"><path id="SvgjsPath1033" d="M 20 0L 133 0C 159.66666666666666 0 159.66666666666666 60 133 60L 20 60C -6.666666666666667 60 -6.666666666666667 0 20 0Z" stroke="rgba(50,50,50,1)" stroke-width="2" fill-opacity="1" fill="#ffffff"></path><g id="SvgjsG1034"><text id="SvgjsText1035" font-family="微软雅黑" text-anchor="middle" font-size="13px" width="117" fill="#323232" font-weight="400" align="middle" anchor="middle" family="微软雅黑" size="13px" weight="400" font-style="" opacity="1" y="20.05" transform="rotate(0)"><tspan id="SvgjsTspan1036" dy="16" x="76.5"><tspan id="SvgjsTspan1037" style="text-decoration:;">插入到指定父节点中</tspan></tspan></text></g></g><g id="SvgjsG1038"><path id="SvgjsPath1039" d="M106 540L106 576L106 576L106 612" stroke="#323232" stroke-width="2" fill="none" marker-end="url(#SvgjsMarker1040)"></path></g><g id="SvgjsG1042"><path id="SvgjsPath1043" d="M106 396L106 433.5L106 433.5L106 471" stroke="#323232" stroke-width="2" fill="none" marker-end="url(#SvgjsMarker1044)"></path><rect id="SvgjsRect1046" width="13" height="16" x="99.5" y="425.5" fill="#ffffff"></rect><text id="SvgjsText1047" font-family="微软雅黑" text-anchor="middle" font-size="13px" width="13" fill="#323232" font-weight="400" align="top" anchor="middle" family="微软雅黑" size="13px" weight="400" font-style="" opacity="1" y="423.55" transform="rotate(0)"><tspan id="SvgjsTspan1048" dy="16" x="106"><tspan id="SvgjsTspan1049" style="text-decoration:;">否</tspan></tspan></text></g><g id="SvgjsG1050"><path id="SvgjsPath1051" d="M106 239L106 275L106 275L106 311" stroke="#323232" stroke-width="2" fill="none" marker-end="url(#SvgjsMarker1052)"></path><rect id="SvgjsRect1054" width="13" height="16" x="99.5" y="267" fill="#ffffff"></rect><text id="SvgjsText1055" font-family="微软雅黑" text-anchor="middle" font-size="13px" width="13" fill="#323232" font-weight="400" align="top" anchor="middle" family="微软雅黑" size="13px" weight="400" font-style="" opacity="1" y="265.05" transform="rotate(0)"><tspan id="SvgjsTspan1056" dy="16" x="106"><tspan id="SvgjsTspan1057" style="text-decoration:;">否</tspan></tspan></text></g><g id="SvgjsG1058" transform="translate(327.5,162)"><path id="SvgjsPath1059" d="M 0 0L 149 0L 149 69L 0 69Z" stroke="rgba(50,50,50,1)" stroke-width="2" fill-opacity="1" fill="#ffffff"></path><g id="SvgjsG1060"><text id="SvgjsText1061" font-family="微软雅黑" text-anchor="middle" font-size="13px" width="78" fill="#323232" font-weight="400" align="middle" anchor="middle" family="微软雅黑" size="13px" weight="400" font-style="" opacity="1" y="24.55" transform="rotate(0)"><tspan id="SvgjsTspan1062" dy="16" x="74.5"><tspan id="SvgjsTspan1063" style="text-decoration:;">创建元素节点</tspan></tspan></text></g></g><g id="SvgjsG1064" transform="translate(331.5,319)"><path id="SvgjsPath1065" d="M 0 0L 149 0L 149 69L 0 69Z" stroke="rgba(50,50,50,1)" stroke-width="2" fill-opacity="1" fill="#ffffff"></path><g id="SvgjsG1066"><text id="SvgjsText1067" font-family="微软雅黑" text-anchor="middle" font-size="13px" width="78" fill="#323232" font-weight="400" align="middle" anchor="middle" family="微软雅黑" size="13px" weight="400" font-style="" opacity="1" y="24.55" transform="rotate(0)"><tspan id="SvgjsTspan1068" dy="16" x="74.5"><tspan id="SvgjsTspan1069" style="text-decoration:;">创建注释节点</tspan></tspan></text></g></g><g id="SvgjsG1070"><path id="SvgjsPath1071" d="M187 196.5L257.25 196.5L257.25 196.5L327.5 196.5" stroke="#323232" stroke-width="2" fill="none" marker-end="url(#SvgjsMarker1072)"></path><rect id="SvgjsRect1074" width="13" height="16" x="250.75" y="188.5" fill="#ffffff"></rect><text id="SvgjsText1075" font-family="微软雅黑" text-anchor="middle" font-size="13px" width="13" fill="#323232" font-weight="400" align="top" anchor="middle" family="微软雅黑" size="13px" weight="400" font-style="" opacity="1" y="186.55" transform="rotate(0)"><tspan id="SvgjsTspan1076" dy="16" x="257.25"><tspan id="SvgjsTspan1077" style="text-decoration:;">是</tspan></tspan></text></g><g id="SvgjsG1078"><path id="SvgjsPath1079" d="M187 353.5L259.25 353.5L259.25 353.5L331.5 353.5" stroke="#323232" stroke-width="2" fill="none" marker-end="url(#SvgjsMarker1080)"></path><rect id="SvgjsRect1082" width="13" height="16" x="252.75" y="345.5" fill="#ffffff"></rect><text id="SvgjsText1083" font-family="微软雅黑" text-anchor="middle" font-size="13px" width="13" fill="#323232" font-weight="400" align="top" anchor="middle" family="微软雅黑" size="13px" weight="400" font-style="" opacity="1" y="343.55" transform="rotate(0)"><tspan id="SvgjsTspan1084" dy="16" x="259.25"><tspan id="SvgjsTspan1085" style="text-decoration:;">是</tspan></tspan></text></g><g id="SvgjsG1086"><path id="SvgjsPath1087" d="M406 388L406 642L182.5 642" stroke="#323232" stroke-width="2" fill="none" marker-end="url(#SvgjsMarker1088)"></path></g><g id="SvgjsG1090"><path id="SvgjsPath1091" d="M476.5 196.5L506.5 196.5L506.5 642L182.5 642" stroke="#323232" stroke-width="2" fill="none" marker-end="url(#SvgjsMarker1092)"></path></g><g id="SvgjsG1094"><path id="SvgjsPath1095" d="M106 85L106 119.5L106 119.5L106 154" stroke="#323232" stroke-width="2" fill="none" marker-end="url(#SvgjsMarker1096)"></path></g></svg>