<svg id="SvgjsSvg1006" width="1045" height="943" xmlns="http://www.w3.org/2000/svg" version="1.1" xmlns:xlink="http://www.w3.org/1999/xlink" xmlns:svgjs="http://svgjs.com/svgjs"><defs id="SvgjsDefs1007"><marker id="SvgjsMarker1030" markerWidth="16" markerHeight="12" refX="16" refY="6" viewBox="0 0 16 12" orient="auto" markerUnits="userSpaceOnUse"><path id="SvgjsPath1031" d="M0,2 L14,6 L0,11 L0,2" fill="#323232" stroke="#323232" stroke-width="2"></path></marker><marker id="SvgjsMarker1038" markerWidth="16" markerHeight="12" refX="16" refY="6" viewBox="0 0 16 12" orient="auto" markerUnits="userSpaceOnUse"><path id="SvgjsPath1039" d="M0,2 L14,6 L0,11 L0,2" fill="#323232" stroke="#323232" stroke-width="2"></path></marker><marker id="SvgjsMarker1050" markerWidth="16" markerHeight="12" refX="16" refY="6" viewBox="0 0 16 12" orient="auto" markerUnits="userSpaceOnUse"><path id="SvgjsPath1051" d="M0,2 L14,6 L0,11 L0,2" fill="#323232" stroke="#323232" stroke-width="2"></path></marker><marker id="SvgjsMarker1064" markerWidth="16" markerHeight="12" refX="16" refY="6" viewBox="0 0 16 12" orient="auto" markerUnits="userSpaceOnUse"><path id="SvgjsPath1065" d="M0,2 L14,6 L0,11 L0,2" fill="#323232" stroke="#323232" stroke-width="2"></path></marker><marker id="SvgjsMarker1078" markerWidth="16" markerHeight="12" refX="16" refY="6" viewBox="0 0 16 12" orient="auto" markerUnits="userSpaceOnUse"><path id="SvgjsPath1079" d="M0,2 L14,6 L0,11 L0,2" fill="#323232" stroke="#323232" stroke-width="2"></path></marker><marker id="SvgjsMarker1102" markerWidth="16" markerHeight="12" refX="16" refY="6" viewBox="0 0 16 12" orient="auto" markerUnits="userSpaceOnUse"><path id="SvgjsPath1103" d="M0,2 L14,6 L0,11 L0,2" fill="#323232" stroke="#323232" stroke-width="2"></path></marker><marker id="SvgjsMarker1110" markerWidth="16" markerHeight="12" refX="16" refY="6" viewBox="0 0 16 12" orient="auto" markerUnits="userSpaceOnUse"><path id="SvgjsPath1111" d="M0,2 L14,6 L0,11 L0,2" fill="#323232" stroke="#323232" stroke-width="2"></path></marker><marker id="SvgjsMarker1124" markerWidth="16" markerHeight="12" refX="16" refY="6" viewBox="0 0 16 12" orient="auto" markerUnits="userSpaceOnUse"><path id="SvgjsPath1125" d="M0,2 L14,6 L0,11 L0,2" fill="#323232" stroke="#323232" stroke-width="2"></path></marker><marker id="SvgjsMarker1142" markerWidth="16" markerHeight="12" refX="16" refY="6" viewBox="0 0 16 12" orient="auto" markerUnits="userSpaceOnUse"><path id="SvgjsPath1143" d="M0,2 L14,6 L0,11 L0,2" fill="#323232" stroke="#323232" stroke-width="2"></path></marker><marker id="SvgjsMarker1150" markerWidth="16" markerHeight="12" refX="16" refY="6" viewBox="0 0 16 12" orient="auto" markerUnits="userSpaceOnUse"><path id="SvgjsPath1151" d="M0,2 L14,6 L0,11 L0,2" fill="#323232" stroke="#323232" stroke-width="2"></path></marker><marker id="SvgjsMarker1162" markerWidth="16" markerHeight="12" refX="16" refY="6" viewBox="0 0 16 12" orient="auto" markerUnits="userSpaceOnUse"><path id="SvgjsPath1163" d="M0,2 L14,6 L0,11 L0,2" fill="#323232" stroke="#323232" stroke-width="2"></path></marker><marker id="SvgjsMarker1178" markerWidth="16" markerHeight="12" refX="16" refY="6" viewBox="0 0 16 12" orient="auto" markerUnits="userSpaceOnUse"><path id="SvgjsPath1179" d="M0,2 L14,6 L0,11 L0,2" fill="#323232" stroke="#323232" stroke-width="2"></path></marker><marker id="SvgjsMarker1196" markerWidth="16" markerHeight="12" refX="16" refY="6" viewBox="0 0 16 12" orient="auto" markerUnits="userSpaceOnUse"><path id="SvgjsPath1197" d="M0,2 L14,6 L0,11 L0,2" fill="#323232" stroke="#323232" stroke-width="2"></path></marker><marker id="SvgjsMarker1212" markerWidth="16" markerHeight="12" refX="16" refY="6" viewBox="0 0 16 12" orient="auto" markerUnits="userSpaceOnUse"><path id="SvgjsPath1213" d="M0,2 L14,6 L0,11 L0,2" fill="#323232" stroke="#323232" stroke-width="2"></path></marker><marker id="SvgjsMarker1230" markerWidth="16" markerHeight="12" refX="16" refY="6" viewBox="0 0 16 12" orient="auto" markerUnits="userSpaceOnUse"><path id="SvgjsPath1231" d="M0,2 L14,6 L0,11 L0,2" fill="#323232" stroke="#323232" stroke-width="2"></path></marker><marker id="SvgjsMarker1240" markerWidth="16" markerHeight="12" refX="16" refY="6" viewBox="0 0 16 12" orient="auto" markerUnits="userSpaceOnUse"><path id="SvgjsPath1241" d="M0,2 L14,6 L0,11 L0,2" fill="#323232" stroke="#323232" stroke-width="2"></path></marker><marker id="SvgjsMarker1256" markerWidth="16" markerHeight="12" refX="16" refY="6" viewBox="0 0 16 12" orient="auto" markerUnits="userSpaceOnUse"><path id="SvgjsPath1257" d="M0,2 L14,6 L0,11 L0,2" fill="#323232" stroke="#323232" stroke-width="2"></path></marker><marker id="SvgjsMarker1270" markerWidth="16" markerHeight="12" refX="16" refY="6" viewBox="0 0 16 12" orient="auto" markerUnits="userSpaceOnUse"><path id="SvgjsPath1271" d="M0,2 L14,6 L0,11 L0,2" fill="#323232" stroke="#323232" stroke-width="2"></path></marker><marker id="SvgjsMarker1286" markerWidth="16" markerHeight="12" refX="16" refY="6" viewBox="0 0 16 12" orient="auto" markerUnits="userSpaceOnUse"><path id="SvgjsPath1287" d="M0,2 L14,6 L0,11 L0,2" fill="#323232" stroke="#323232" stroke-width="2"></path></marker><marker id="SvgjsMarker1304" markerWidth="16" markerHeight="12" refX="16" refY="6" viewBox="0 0 16 12" orient="auto" markerUnits="userSpaceOnUse"><path id="SvgjsPath1305" d="M0,2 L14,6 L0,11 L0,2" fill="#323232" stroke="#323232" stroke-width="2"></path></marker><marker id="SvgjsMarker1312" markerWidth="16" markerHeight="12" refX="16" refY="6" viewBox="0 0 16 12" orient="auto" markerUnits="userSpaceOnUse"><path id="SvgjsPath1313" d="M0,2 L14,6 L0,11 L0,2" fill="#323232" stroke="#323232" stroke-width="2"></path></marker></defs><g id="SvgjsG1008" transform="translate(585,25)"><path id="SvgjsPath1009" d="M 16.666666666666668 0L 83.33333333333333 0C 105.55555555555556 0 105.55555555555556 50 83.33333333333333 50L 16.666666666666668 50C -5.555555555555556 50 -5.555555555555556 0 16.666666666666668 0Z" stroke="rgba(50,50,50,1)" stroke-width="2" fill-opacity="1" fill="#ffffff"></path><g id="SvgjsG1010"><text id="SvgjsText1011" font-family="微软雅黑" text-anchor="middle" font-size="12px" width="48" fill="#323232" font-weight="400" align="middle" anchor="middle" family="微软雅黑" size="12px" weight="400" font-style="" opacity="1" y="15.7" transform="rotate(0)"><tspan id="SvgjsTspan1012" dy="15" x="50"><tspan id="SvgjsTspan1013" style="text-decoration:;">更新节点</tspan></tspan></text></g></g><g id="SvgjsG1014" transform="translate(561.75,117)"><path id="SvgjsPath1015" d="M 0 36L 73.25 0L 146.5 36L 73.25 72L 0 36Z" stroke="rgba(50,50,50,1)" stroke-width="2" fill-opacity="1" fill="#ffffff"></path><g id="SvgjsG1016"><text id="SvgjsText1017" font-family="微软雅黑" text-anchor="middle" font-size="12px" width="121" fill="#323232" font-weight="400" align="middle" anchor="middle" family="微软雅黑" size="12px" weight="400" font-style="" opacity="1" y="19.2" transform="rotate(0)"><tspan id="SvgjsTspan1018" dy="15" x="73.5"><tspan id="SvgjsTspan1019" style="text-decoration:;">vnode 与 oldVnode 完</tspan></tspan><tspan id="SvgjsTspan1020" dy="15" x="73.5"><tspan id="SvgjsTspan1021" style="text-decoration:;">全相等？</tspan></tspan></text></g></g><g id="SvgjsG1022" transform="translate(784,128)"><path id="SvgjsPath1023" d="M 16.666666666666668 0L 83.33333333333333 0C 105.55555555555556 0 105.55555555555556 50 83.33333333333333 50L 16.666666666666668 50C -5.555555555555556 50 -5.555555555555556 0 16.666666666666668 0Z" stroke="rgba(50,50,50,1)" stroke-width="2" fill-opacity="1" fill="#ffffff"></path><g id="SvgjsG1024"><text id="SvgjsText1025" font-family="微软雅黑" text-anchor="middle" font-size="12px" width="48" fill="#323232" font-weight="400" align="middle" anchor="middle" family="微软雅黑" size="12px" weight="400" font-style="" opacity="1" y="15.7" transform="rotate(0)"><tspan id="SvgjsTspan1026" dy="15" x="50"><tspan id="SvgjsTspan1027" style="text-decoration:;">退出程序</tspan></tspan></text></g></g><g id="SvgjsG1028"><path id="SvgjsPath1029" d="M708.25 153L746.125 153L746.125 153L784 153" stroke="#323232" stroke-width="2" fill="none" marker-end="url(#SvgjsMarker1030)"></path><rect id="SvgjsRect1032" width="12" height="15" x="740.125" y="145.5" fill="#ffffff"></rect><text id="SvgjsText1033" font-family="微软雅黑" text-anchor="middle" font-size="12px" width="12" fill="#323232" font-weight="400" align="top" anchor="middle" family="微软雅黑" size="12px" weight="400" font-style="" opacity="1" y="143.7" transform="rotate(0)"><tspan id="SvgjsTspan1034" dy="15" x="746.125"><tspan id="SvgjsTspan1035" style="text-decoration:;">是</tspan></tspan></text></g><g id="SvgjsG1036"><path id="SvgjsPath1037" d="M635 75L635 96L635 96L635 117" stroke="#323232" stroke-width="2" fill="none" marker-end="url(#SvgjsMarker1038)"></path></g><g id="SvgjsG1040" transform="translate(561.75,233)"><path id="SvgjsPath1041" d="M 0 36L 73.25 0L 146.5 36L 73.25 72L 0 36Z" stroke="rgba(50,50,50,1)" stroke-width="2" fill-opacity="1" fill="#ffffff"></path><g id="SvgjsG1042"><text id="SvgjsText1043" font-family="微软雅黑" text-anchor="middle" font-size="12px" width="121" fill="#323232" font-weight="400" align="middle" anchor="middle" family="微软雅黑" size="12px" weight="400" font-style="" opacity="1" y="19.2" transform="rotate(0)"><tspan id="SvgjsTspan1044" dy="15" x="73.5"><tspan id="SvgjsTspan1045" style="text-decoration:;">vnode 与 oldVnode 是</tspan></tspan><tspan id="SvgjsTspan1046" dy="15" x="73.5"><tspan id="SvgjsTspan1047" style="text-decoration:;">静态节点？</tspan></tspan></text></g></g><g id="SvgjsG1048"><path id="SvgjsPath1049" d="M635 189L635 211L635 211L635 233" stroke="#323232" stroke-width="2" fill="none" marker-end="url(#SvgjsMarker1050)"></path><rect id="SvgjsRect1052" width="12" height="15" x="629" y="203.5" fill="#ffffff"></rect><text id="SvgjsText1053" font-family="微软雅黑" text-anchor="middle" font-size="12px" width="12" fill="#323232" font-weight="400" align="top" anchor="middle" family="微软雅黑" size="12px" weight="400" font-style="" opacity="1" y="201.7" transform="rotate(0)"><tspan id="SvgjsTspan1054" dy="15" x="635"><tspan id="SvgjsTspan1055" style="text-decoration:;">否</tspan></tspan></text></g><g id="SvgjsG1056" transform="translate(784,244)"><path id="SvgjsPath1057" d="M 16.666666666666668 0L 83.33333333333333 0C 105.55555555555556 0 105.55555555555556 50 83.33333333333333 50L 16.666666666666668 50C -5.555555555555556 50 -5.555555555555556 0 16.666666666666668 0Z" stroke="rgba(50,50,50,1)" stroke-width="2" fill-opacity="1" fill="#ffffff"></path><g id="SvgjsG1058"><text id="SvgjsText1059" font-family="微软雅黑" text-anchor="middle" font-size="12px" width="48" fill="#323232" font-weight="400" align="middle" anchor="middle" family="微软雅黑" size="12px" weight="400" font-style="" opacity="1" y="15.7" transform="rotate(0)"><tspan id="SvgjsTspan1060" dy="15" x="50"><tspan id="SvgjsTspan1061" style="text-decoration:;">退出程序</tspan></tspan></text></g></g><g id="SvgjsG1062"><path id="SvgjsPath1063" d="M708.25 269L746.125 269L746.125 269L784 269" stroke="#323232" stroke-width="2" fill="none" marker-end="url(#SvgjsMarker1064)"></path><rect id="SvgjsRect1066" width="12" height="15" x="740.125" y="261.5" fill="#ffffff"></rect><text id="SvgjsText1067" font-family="微软雅黑" text-anchor="middle" font-size="12px" width="12" fill="#323232" font-weight="400" align="top" anchor="middle" family="微软雅黑" size="12px" weight="400" font-style="" opacity="1" y="259.7" transform="rotate(0)"><tspan id="SvgjsTspan1068" dy="15" x="746.125"><tspan id="SvgjsTspan1069" style="text-decoration:;">是</tspan></tspan></text></g><g id="SvgjsG1070" transform="translate(561.75,353)"><path id="SvgjsPath1071" d="M 0 37.5L 73.25 0L 146.5 37.5L 73.25 75L 0 37.5Z" stroke="rgba(50,50,50,1)" stroke-width="2" fill-opacity="1" fill="#ffffff"></path><g id="SvgjsG1072"><text id="SvgjsText1073" font-family="微软雅黑" text-anchor="middle" font-size="12px" width="115" fill="#323232" font-weight="400" align="middle" anchor="middle" family="微软雅黑" size="12px" weight="400" font-style="" opacity="1" y="28.2" transform="rotate(0)"><tspan id="SvgjsTspan1074" dy="15" x="73.5"><tspan id="SvgjsTspan1075" style="text-decoration:;">vnode 有 text 属性？</tspan></tspan></text></g></g><g id="SvgjsG1076"><path id="SvgjsPath1077" d="M635 305L635 329L635 329L635 353" stroke="#323232" stroke-width="2" fill="none" marker-end="url(#SvgjsMarker1078)"></path><rect id="SvgjsRect1080" width="12" height="15" x="629" y="321.5" fill="#ffffff"></rect><text id="SvgjsText1081" font-family="微软雅黑" text-anchor="middle" font-size="12px" width="12" fill="#323232" font-weight="400" align="top" anchor="middle" family="微软雅黑" size="12px" weight="400" font-style="" opacity="1" y="319.7" transform="rotate(0)"><tspan id="SvgjsTspan1082" dy="15" x="635"><tspan id="SvgjsTspan1083" style="text-decoration:;">否</tspan></tspan></text></g><g id="SvgjsG1084" transform="translate(790.75,458)"><path id="SvgjsPath1085" d="M 0 37.5L 73.25 0L 146.5 37.5L 73.25 75L 0 37.5Z" stroke="rgba(50,50,50,1)" stroke-width="2" fill-opacity="1" fill="#ffffff"></path><g id="SvgjsG1086"><text id="SvgjsText1087" font-family="微软雅黑" text-anchor="middle" font-size="12px" width="116" fill="#323232" font-weight="400" align="middle" anchor="middle" family="微软雅黑" size="12px" weight="400" font-style="" opacity="1" y="13.2" transform="rotate(0)"><tspan id="SvgjsTspan1088" dy="15" x="73.5"><tspan id="SvgjsTspan1089" style="text-decoration:;">vnode 的文本和 </tspan></tspan><tspan id="SvgjsTspan1090" dy="15" x="73.5"><tspan id="SvgjsTspan1091" style="text-decoration:;">oldVnode 的文本是否</tspan></tspan><tspan id="SvgjsTspan1092" dy="15" x="73.5"><tspan id="SvgjsTspan1093" style="text-decoration:;">相同？</tspan></tspan></text></g></g><g id="SvgjsG1094" transform="translate(283.75,458)"><path id="SvgjsPath1095" d="M 0 37.5L 73.25 0L 146.5 37.5L 73.25 75L 0 37.5Z" stroke="rgba(50,50,50,1)" stroke-width="2" fill-opacity="1" fill="#ffffff"></path><g id="SvgjsG1096"><text id="SvgjsText1097" font-family="微软雅黑" text-anchor="middle" font-size="12px" width="97" fill="#323232" font-weight="400" align="middle" anchor="middle" family="微软雅黑" size="12px" weight="400" font-style="" opacity="1" y="28.2" transform="rotate(0)"><tspan id="SvgjsTspan1098" dy="15" x="73.5"><tspan id="SvgjsTspan1099" style="text-decoration:;">vnode 有子节点？</tspan></tspan></text></g></g><g id="SvgjsG1100"><path id="SvgjsPath1101" d="M561.75 390.5L357 390.5L357 458" stroke="#323232" stroke-width="2" fill="none" marker-end="url(#SvgjsMarker1102)"></path><rect id="SvgjsRect1104" width="24" height="15" x="413.625" y="383" fill="#ffffff"></rect><text id="SvgjsText1105" font-family="微软雅黑" text-anchor="middle" font-size="12px" width="24" fill="#323232" font-weight="400" align="top" anchor="middle" family="微软雅黑" size="12px" weight="400" font-style="" opacity="1" y="381.2" transform="rotate(0)"><tspan id="SvgjsTspan1106" dy="15" x="425.625"><tspan id="SvgjsTspan1107" style="text-decoration:;">没有</tspan></tspan></text></g><g id="SvgjsG1108"><path id="SvgjsPath1109" d="M708.25 390.5L864 390.5L864 458" stroke="#323232" stroke-width="2" fill="none" marker-end="url(#SvgjsMarker1110)"></path><rect id="SvgjsRect1112" width="12" height="15" x="813.875" y="383" fill="#ffffff"></rect><text id="SvgjsText1113" font-family="微软雅黑" text-anchor="middle" font-size="12px" width="12" fill="#323232" font-weight="400" align="top" anchor="middle" family="微软雅黑" size="12px" weight="400" font-style="" opacity="1" y="381.2" transform="rotate(0)"><tspan id="SvgjsTspan1114" dy="15" x="819.875"><tspan id="SvgjsTspan1115" style="text-decoration:;">有</tspan></tspan></text></g><g id="SvgjsG1116" transform="translate(724.75,575)"><path id="SvgjsPath1117" d="M 16.666666666666668 0L 83.33333333333333 0C 105.55555555555556 0 105.55555555555556 50 83.33333333333333 50L 16.666666666666668 50C -5.555555555555556 50 -5.555555555555556 0 16.666666666666668 0Z" stroke="rgba(50,50,50,1)" stroke-width="2" fill-opacity="1" fill="#ffffff"></path><g id="SvgjsG1118"><text id="SvgjsText1119" font-family="微软雅黑" text-anchor="middle" font-size="12px" width="48" fill="#323232" font-weight="400" align="middle" anchor="middle" family="微软雅黑" size="12px" weight="400" font-style="" opacity="1" y="15.7" transform="rotate(0)"><tspan id="SvgjsTspan1120" dy="15" x="50"><tspan id="SvgjsTspan1121" style="text-decoration:;">退出程序</tspan></tspan></text></g></g><g id="SvgjsG1122"><path id="SvgjsPath1123" d="M790.75 495.5L774.75 495.5L774.75 575" stroke="#323232" stroke-width="2" fill="none" marker-end="url(#SvgjsMarker1124)"></path><rect id="SvgjsRect1126" width="24" height="15" x="762.75" y="519.75" fill="#ffffff"></rect><text id="SvgjsText1127" font-family="微软雅黑" text-anchor="middle" font-size="12px" width="24" fill="#323232" font-weight="400" align="top" anchor="middle" family="微软雅黑" size="12px" weight="400" font-style="" opacity="1" y="517.95" transform="rotate(0)"><tspan id="SvgjsTspan1128" dy="15" x="774.75"><tspan id="SvgjsTspan1129" style="text-decoration:;">相同</tspan></tspan></text></g><g id="SvgjsG1130" transform="translate(891,570)"><path id="SvgjsPath1131" d="M 0 0L 129 0L 129 60L 0 60Z" stroke="rgba(50,50,50,1)" stroke-width="2" fill-opacity="1" fill="#ffffff"></path><g id="SvgjsG1132"><text id="SvgjsText1133" font-family="微软雅黑" text-anchor="middle" font-size="12px" width="106" fill="#323232" font-weight="400" align="middle" anchor="middle" family="微软雅黑" size="12px" weight="400" font-style="" opacity="1" y="5.7" transform="rotate(0)"><tspan id="SvgjsTspan1134" dy="15" x="64.5"><tspan id="SvgjsTspan1135" style="text-decoration:;">把真实DOM节点的</tspan></tspan><tspan id="SvgjsTspan1136" dy="15" x="64.5"><tspan id="SvgjsTspan1137" style="text-decoration:;">内容改成vnode.text</tspan></tspan><tspan id="SvgjsTspan1138" dy="15" x="64.5"><tspan id="SvgjsTspan1139" style="text-decoration:;">所保存的文本</tspan></tspan></text></g></g><g id="SvgjsG1140"><path id="SvgjsPath1141" d="M937.25 495.5L955.5 495.5L955.5 570" stroke="#323232" stroke-width="2" fill="none" marker-end="url(#SvgjsMarker1142)"></path><rect id="SvgjsRect1144" width="39" height="16" x="936" y="515.625" fill="#ffffff"></rect><text id="SvgjsText1145" font-family="微软雅黑" text-anchor="middle" font-size="13px" width="39" fill="#323232" font-weight="400" align="top" anchor="middle" family="微软雅黑" size="13px" weight="400" font-style="" opacity="1" y="513.675" transform="rotate(0)"><tspan id="SvgjsTspan1146" dy="16" x="955.5"><tspan id="SvgjsTspan1147" style="text-decoration:;">不相同</tspan></tspan></text></g><g id="SvgjsG1148"><path id="SvgjsPath1149" d="M891 600L857.875 600L857.875 600L824.75 600" stroke="#323232" stroke-width="2" fill="none" marker-end="url(#SvgjsMarker1150)"></path></g><g id="SvgjsG1152" transform="translate(524,555)"><path id="SvgjsPath1153" d="M 0 45L 45 0L 90 45L 45 90L 0 45Z" stroke="rgba(50,50,50,1)" stroke-width="2" fill-opacity="1" fill="#ffffff"></path><g id="SvgjsG1154"><text id="SvgjsText1155" font-family="微软雅黑" text-anchor="middle" font-size="13px" width="65" fill="#323232" font-weight="400" align="middle" anchor="middle" family="微软雅黑" size="13px" weight="400" font-style="" opacity="1" y="27.05" transform="rotate(0)"><tspan id="SvgjsTspan1156" dy="16" x="45"><tspan id="SvgjsTspan1157" style="text-decoration:;">oldVnode </tspan></tspan><tspan id="SvgjsTspan1158" dy="16" x="45"><tspan id="SvgjsTspan1159" style="text-decoration:;">有子节点？</tspan></tspan></text></g></g><g id="SvgjsG1160"><path id="SvgjsPath1161" d="M430.25 495.5L569 495.5L569 555" stroke="#323232" stroke-width="2" fill="none" marker-end="url(#SvgjsMarker1162)"></path><rect id="SvgjsRect1164" width="26" height="16" x="516.375" y="487.5" fill="#ffffff"></rect><text id="SvgjsText1165" font-family="微软雅黑" text-anchor="middle" font-size="13px" width="26" fill="#323232" font-weight="400" align="top" anchor="middle" family="微软雅黑" size="13px" weight="400" font-style="" opacity="1" y="485.55" transform="rotate(0)"><tspan id="SvgjsTspan1166" dy="16" x="529.375"><tspan id="SvgjsTspan1167" style="text-decoration:;">没有</tspan></tspan></text></g><g id="SvgjsG1168" transform="translate(130,555)"><path id="SvgjsPath1169" d="M 0 45L 45 0L 90 45L 45 90L 0 45Z" stroke="rgba(50,50,50,1)" stroke-width="2" fill-opacity="1" fill="#ffffff"></path><g id="SvgjsG1170"><text id="SvgjsText1171" font-family="微软雅黑" text-anchor="middle" font-size="13px" width="65" fill="#323232" font-weight="400" align="middle" anchor="middle" family="微软雅黑" size="13px" weight="400" font-style="" opacity="1" y="27.05" transform="rotate(0)"><tspan id="SvgjsTspan1172" dy="16" x="45"><tspan id="SvgjsTspan1173" style="text-decoration:;">oldVnode </tspan></tspan><tspan id="SvgjsTspan1174" dy="16" x="45"><tspan id="SvgjsTspan1175" style="text-decoration:;">有子节点？</tspan></tspan></text></g></g><g id="SvgjsG1176"><path id="SvgjsPath1177" d="M283.75 495.5L175 495.5L175 555" stroke="#323232" stroke-width="2" fill="none" marker-end="url(#SvgjsMarker1178)"></path><rect id="SvgjsRect1180" width="13" height="16" x="193.125" y="487.5" fill="#ffffff"></rect><text id="SvgjsText1181" font-family="微软雅黑" text-anchor="middle" font-size="13px" width="13" fill="#323232" font-weight="400" align="top" anchor="middle" family="微软雅黑" size="13px" weight="400" font-style="" opacity="1" y="485.55" transform="rotate(0)"><tspan id="SvgjsTspan1182" dy="16" x="199.625"><tspan id="SvgjsTspan1183" style="text-decoration:;">有</tspan></tspan></text></g><g id="SvgjsG1184" transform="translate(424,670)"><path id="SvgjsPath1185" d="M 16.666666666666668 0L 83.33333333333333 0C 105.55555555555556 0 105.55555555555556 50 83.33333333333333 50L 16.666666666666668 50C -5.555555555555556 50 -5.555555555555556 0 16.666666666666668 0Z" stroke="rgba(50,50,50,1)" stroke-width="2" fill-opacity="1" fill="#ffffff"></path><g id="SvgjsG1186"><text id="SvgjsText1187" font-family="微软雅黑" text-anchor="middle" font-size="13px" width="70" fill="#323232" font-weight="400" align="middle" anchor="middle" family="微软雅黑" size="13px" weight="400" font-style="" opacity="1" y="-0.95" transform="rotate(0)"><tspan id="SvgjsTspan1188" dy="16" x="50"><tspan id="SvgjsTspan1189" style="text-decoration:;">清空真实</tspan></tspan><tspan id="SvgjsTspan1190" dy="16" x="50"><tspan id="SvgjsTspan1191" style="text-decoration:;">DOM中的子</tspan></tspan><tspan id="SvgjsTspan1192" dy="16" x="50"><tspan id="SvgjsTspan1193" style="text-decoration:;">节点</tspan></tspan></text></g></g><g id="SvgjsG1194"><path id="SvgjsPath1195" d="M524 600L474 600L474 670" stroke="#323232" stroke-width="2" fill="none" marker-end="url(#SvgjsMarker1196)"></path><rect id="SvgjsRect1198" width="13" height="16" x="467.50000000000006" y="602" fill="#ffffff"></rect><text id="SvgjsText1199" font-family="微软雅黑" text-anchor="middle" font-size="13px" width="13" fill="#323232" font-weight="400" align="top" anchor="middle" family="微软雅黑" size="13px" weight="400" font-style="" opacity="1" y="600.05" transform="rotate(0)"><tspan id="SvgjsTspan1200" dy="16" x="474.00000000000006"><tspan id="SvgjsTspan1201" style="text-decoration:;">有</tspan></tspan></text></g><g id="SvgjsG1202" transform="translate(608,660)"><path id="SvgjsPath1203" d="M 0 35L 45 0L 90 35L 45 70L 0 35Z" stroke="rgba(50,50,50,1)" stroke-width="2" fill-opacity="1" fill="#ffffff"></path><g id="SvgjsG1204"><text id="SvgjsText1205" font-family="微软雅黑" text-anchor="middle" font-size="13px" width="69" fill="#323232" font-weight="400" align="middle" anchor="middle" family="微软雅黑" size="13px" weight="400" font-style="" opacity="1" y="17.05" transform="rotate(0)"><tspan id="SvgjsTspan1206" dy="16" x="45"><tspan id="SvgjsTspan1207" style="text-decoration:;">oldVnode有</tspan></tspan><tspan id="SvgjsTspan1208" dy="16" x="45"><tspan id="SvgjsTspan1209" style="text-decoration:;">文本？</tspan></tspan></text></g></g><g id="SvgjsG1210"><path id="SvgjsPath1211" d="M614 600L653 600L653 660" stroke="#323232" stroke-width="2" fill="none" marker-end="url(#SvgjsMarker1212)"></path><rect id="SvgjsRect1214" width="26" height="16" x="640" y="602.5" fill="#ffffff"></rect><text id="SvgjsText1215" font-family="微软雅黑" text-anchor="middle" font-size="13px" width="26" fill="#323232" font-weight="400" align="top" anchor="middle" family="微软雅黑" size="13px" weight="400" font-style="" opacity="1" y="600.55" transform="rotate(0)"><tspan id="SvgjsTspan1216" dy="16" x="653"><tspan id="SvgjsTspan1217" style="text-decoration:;">没有</tspan></tspan></text></g><g id="SvgjsG1218" transform="translate(603,773)"><path id="SvgjsPath1219" d="M 16.666666666666668 0L 83.33333333333333 0C 105.55555555555556 0 105.55555555555556 50 83.33333333333333 50L 16.666666666666668 50C -5.555555555555556 50 -5.555555555555556 0 16.666666666666668 0Z" stroke="rgba(50,50,50,1)" stroke-width="2" fill-opacity="1" fill="#ffffff"></path><g id="SvgjsG1220"><text id="SvgjsText1221" font-family="微软雅黑" text-anchor="middle" font-size="13px" width="70" fill="#323232" font-weight="400" align="middle" anchor="middle" family="微软雅黑" size="13px" weight="400" font-style="" opacity="1" y="-0.95" transform="rotate(0)"><tspan id="SvgjsTspan1222" dy="16" x="50"><tspan id="SvgjsTspan1223" style="text-decoration:;">清空真实</tspan></tspan><tspan id="SvgjsTspan1224" dy="16" x="50"><tspan id="SvgjsTspan1225" style="text-decoration:;">DOM中的文</tspan></tspan><tspan id="SvgjsTspan1226" dy="16" x="50"><tspan id="SvgjsTspan1227" style="text-decoration:;">本</tspan></tspan></text></g></g><g id="SvgjsG1228"><path id="SvgjsPath1229" d="M653 730L653 751.5L653 751.5L653 773" stroke="#323232" stroke-width="2" fill="none" marker-end="url(#SvgjsMarker1230)"></path></g><g id="SvgjsG1232" transform="translate(237,660)"><path id="SvgjsPath1233" d="M 0 35L 69.5 0L 139 35L 69.5 70L 0 35Z" stroke="rgba(50,50,50,1)" stroke-width="2" fill-opacity="1" fill="#ffffff"></path><g id="SvgjsG1234"><text id="SvgjsText1235" font-family="微软雅黑" text-anchor="middle" font-size="13px" width="108" fill="#323232" font-weight="400" align="middle" anchor="middle" family="微软雅黑" size="13px" weight="400" font-style="" opacity="1" y="25.05" transform="rotate(0)"><tspan id="SvgjsTspan1236" dy="16" x="69.5"><tspan id="SvgjsTspan1237" style="text-decoration:;">oldVnode有文本？</tspan></tspan></text></g></g><g id="SvgjsG1238"><path id="SvgjsPath1239" d="M220 600L306.5 600L306.5 660" stroke="#323232" stroke-width="2" fill="none" marker-end="url(#SvgjsMarker1240)"></path><rect id="SvgjsRect1242" width="26" height="16" x="280.25" y="592" fill="#ffffff"></rect><text id="SvgjsText1243" font-family="微软雅黑" text-anchor="middle" font-size="13px" width="26" fill="#323232" font-weight="400" align="top" anchor="middle" family="微软雅黑" size="13px" weight="400" font-style="" opacity="1" y="590.05" transform="rotate(0)"><tspan id="SvgjsTspan1244" dy="16" x="293.25"><tspan id="SvgjsTspan1245" style="text-decoration:;">没有</tspan></tspan></text></g><g id="SvgjsG1246" transform="translate(25,720)"><path id="SvgjsPath1247" d="M 0 49L 84.5 0L 169 49L 84.5 98L 0 49Z" stroke="rgba(50,50,50,1)" stroke-width="2" fill-opacity="1" fill="#ffffff"></path><g id="SvgjsG1248"><text id="SvgjsText1249" font-family="微软雅黑" text-anchor="middle" font-size="13px" width="144" fill="#323232" font-weight="400" align="middle" anchor="middle" family="微软雅黑" size="13px" weight="400" font-style="" opacity="1" y="31.05" transform="rotate(0)"><tspan id="SvgjsTspan1250" dy="16" x="84.5"><tspan id="SvgjsTspan1251" style="text-decoration:;">oldVnode子节点和vnode</tspan></tspan><tspan id="SvgjsTspan1252" dy="16" x="84.5"><tspan id="SvgjsTspan1253" style="text-decoration:;">子节点是否不相同？</tspan></tspan></text></g></g><g id="SvgjsG1254"><path id="SvgjsPath1255" d="M130 600L109.5 600L109.5 720" stroke="#323232" stroke-width="2" fill="none" marker-end="url(#SvgjsMarker1256)"></path><rect id="SvgjsRect1258" width="13" height="16" x="103" y="641.75" fill="#ffffff"></rect><text id="SvgjsText1259" font-family="微软雅黑" text-anchor="middle" font-size="13px" width="13" fill="#323232" font-weight="400" align="top" anchor="middle" family="微软雅黑" size="13px" weight="400" font-style="" opacity="1" y="639.8" transform="rotate(0)"><tspan id="SvgjsTspan1260" dy="16" x="109.5"><tspan id="SvgjsTspan1261" style="text-decoration:;">有</tspan></tspan></text></g><g id="SvgjsG1262" transform="translate(59.5,868)"><path id="SvgjsPath1263" d="M 16.666666666666668 0L 83.33333333333333 0C 105.55555555555556 0 105.55555555555556 50 83.33333333333333 50L 16.666666666666668 50C -5.555555555555556 50 -5.555555555555556 0 16.666666666666668 0Z" stroke="rgba(50,50,50,1)" stroke-width="2" fill-opacity="1" fill="#ffffff"></path><g id="SvgjsG1264"><text id="SvgjsText1265" font-family="微软雅黑" text-anchor="middle" font-size="13px" width="65" fill="#323232" font-weight="400" align="middle" anchor="middle" family="微软雅黑" size="13px" weight="400" font-style="" opacity="1" y="15.05" transform="rotate(0)"><tspan id="SvgjsTspan1266" dy="16" x="50"><tspan id="SvgjsTspan1267" style="text-decoration:;">更新子节点</tspan></tspan></text></g></g><g id="SvgjsG1268"><path id="SvgjsPath1269" d="M109.5 818L109.5 843L109.5 843L109.5 868" stroke="#323232" stroke-width="2" fill="none" marker-end="url(#SvgjsMarker1270)"></path><rect id="SvgjsRect1272" width="13" height="16" x="103" y="835" fill="#ffffff"></rect><text id="SvgjsText1273" font-family="微软雅黑" text-anchor="middle" font-size="13px" width="13" fill="#323232" font-weight="400" align="top" anchor="middle" family="微软雅黑" size="13px" weight="400" font-style="" opacity="1" y="833.05" transform="rotate(0)"><tspan id="SvgjsTspan1274" dy="16" x="109.5"><tspan id="SvgjsTspan1275" style="text-decoration:;">是</tspan></tspan></text></g><g id="SvgjsG1276" transform="translate(177,865)"><path id="SvgjsPath1277" d="M 0 0L 82 0L 82 53L 0 53Z" stroke="rgba(50,50,50,1)" stroke-width="2" fill-opacity="1" fill="#ffffff"></path><g id="SvgjsG1278"><text id="SvgjsText1279" font-family="微软雅黑" text-anchor="middle" font-size="13px" width="57" fill="#323232" font-weight="400" align="middle" anchor="middle" family="微软雅黑" size="13px" weight="400" font-style="" opacity="1" y="8.55" transform="rotate(0)"><tspan id="SvgjsTspan1280" dy="16" x="41"><tspan id="SvgjsTspan1281" style="text-decoration:;">清空DOM</tspan></tspan><tspan id="SvgjsTspan1282" dy="16" x="41"><tspan id="SvgjsTspan1283" style="text-decoration:;">中的文本</tspan></tspan></text></g></g><g id="SvgjsG1284"><path id="SvgjsPath1285" d="M237 695L218 695L218 865" stroke="#323232" stroke-width="2" fill="none" marker-end="url(#SvgjsMarker1286)"></path><rect id="SvgjsRect1288" width="13" height="16" x="211.5" y="762.5" fill="#ffffff"></rect><text id="SvgjsText1289" font-family="微软雅黑" text-anchor="middle" font-size="13px" width="13" fill="#323232" font-weight="400" align="top" anchor="middle" family="微软雅黑" size="13px" weight="400" font-style="" opacity="1" y="760.55" transform="rotate(0)"><tspan id="SvgjsTspan1290" dy="16" x="218"><tspan id="SvgjsTspan1291" style="text-decoration:;">有</tspan></tspan></text></g><g id="SvgjsG1292" transform="translate(352,866.5)"><path id="SvgjsPath1293" d="M 16.666666666666668 0L 83.33333333333333 0C 105.55555555555556 0 105.55555555555556 50 83.33333333333333 50L 16.666666666666668 50C -5.555555555555556 50 -5.555555555555556 0 16.666666666666668 0Z" stroke="rgba(50,50,50,1)" stroke-width="2" fill-opacity="1" fill="#ffffff"></path><g id="SvgjsG1294"><text id="SvgjsText1295" font-family="微软雅黑" text-anchor="middle" font-size="13px" width="75" fill="#323232" font-weight="400" align="middle" anchor="middle" family="微软雅黑" size="13px" weight="400" font-style="" opacity="1" y="-0.95" transform="rotate(0)"><tspan id="SvgjsTspan1296" dy="16" x="50"><tspan id="SvgjsTspan1297" style="text-decoration:;">把vnode的子</tspan></tspan><tspan id="SvgjsTspan1298" dy="16" x="50"><tspan id="SvgjsTspan1299" style="text-decoration:;">节点添加到</tspan></tspan><tspan id="SvgjsTspan1300" dy="16" x="50"><tspan id="SvgjsTspan1301" style="text-decoration:;">DOM</tspan></tspan></text></g></g><g id="SvgjsG1302"><path id="SvgjsPath1303" d="M376 695L402 695L402 866.5" stroke="#323232" stroke-width="2" fill="none" marker-end="url(#SvgjsMarker1304)"></path><rect id="SvgjsRect1306" width="26" height="16" x="389" y="759.75" fill="#ffffff"></rect><text id="SvgjsText1307" font-family="微软雅黑" text-anchor="middle" font-size="13px" width="26" fill="#323232" font-weight="400" align="top" anchor="middle" family="微软雅黑" size="13px" weight="400" font-style="" opacity="1" y="757.8" transform="rotate(0)"><tspan id="SvgjsTspan1308" dy="16" x="402"><tspan id="SvgjsTspan1309" style="text-decoration:;">没有</tspan></tspan></text></g><g id="SvgjsG1310"><path id="SvgjsPath1311" d="M259 891.5L305.5 891.5L305.5 891.5L352 891.5" stroke="#323232" stroke-width="2" fill="none" marker-end="url(#SvgjsMarker1312)"></path></g></svg>